<mxfile host="app.diagrams.net" modified="2024-04-15T17:02:48.871Z" agent="Mozilla/5.0 (Windows NT 10.0; Win64; x64) AppleWebKit/537.36 (KHTML, like Gecko) Chrome/123.0.0.0 Safari/537.36 Edg/123.0.0.0" version="22.1.21" etag="A4wG6kTaR074xxeVgac5" type="github">
  <diagram name="第 1 页" id="rorSxHajdFWNhUQEqVoF">
    <mxGraphModel>
      <root>
        <mxCell id="0" />
        <mxCell id="1" parent="0" />
      </root>
    </mxGraphModel>
  </diagram>
</mxfile>
